# xmcd
#
# Track frame offsets: 
#        150
#        15908
#        29264
#        48879
#        65141
#        82385
#        98398
#        120157
#        138017
#        156114
#        176004
#        196029
#        215394
#        236629
#        257142
#        274829
#        294454
#
# Disc length: 4150 seconds
#
# Revision: 0
# Processed by: cddbd v1.5.1PL0 Copyright (c) Steve Scherf et al.
# Submitted via: ExactAudioCopy v0.95a3
#
DISCID=e1103411
DTITLE=И.К.С. Миссия - Рядом С Тобой
DYEAR=2001
DGENRE=Pop
TTITLE0=Рыжий Ап!
TTITLE1=Рядом Со Мной
TTITLE2=Надо Прощаться
TTITLE3=Я Без Тебя
TTITLE4=Ты Первая
TTITLE5=Первый Снег
TTITLE6=Непрочитанное Письмо
TTITLE7=Я Своим Глазам Не Верю
TTITLE8=Осень
TTITLE9=Дембель 2000
TTITLE10=Единственный Друг
TTITLE11=Война За Души
TTITLE12=Аста-Ла-Виста
TTITLE13=Белые Ночи
TTITLE14=Тихим Вечером
TTITLE15=Обещай
TTITLE16=Я Прошу Тебя
EXTD=
EXTT0=
EXTT1=
EXTT2=
EXTT3=
EXTT4=
EXTT5=
EXTT6=
EXTT7=
EXTT8=
EXTT9=
EXTT10=
EXTT11=
EXTT12=
EXTT13=
EXTT14=
EXTT15=
EXTT16=
PLAYORDER=
